<?xml version="1.0" standalone="no"?>
<!DOCTYPE svg PUBLIC "-//W3C//DTD SVG 20010904//EN"
 "http://www.w3.org/TR/2001/REC-SVG-20010904/DTD/svg10.dtd">
<svg version="1.0" xmlns="http://www.w3.org/2000/svg"
 width="299.000000pt" height="299.000000pt" viewBox="0 0 299.000000 299.000000"
 preserveAspectRatio="xMidYMid meet">
<metadata>
Created by potrace 1.14, written by Peter Selinger 2001-2017
</metadata>
<g transform="translate(0.000000,299.000000) scale(0.100000,-0.100000)"
fill="#000000" stroke="none">
<path d="M1584 2502 c-32 -21 -34 -51 -34 -621 l0 -570 -56 34 c-91 55 -142
68 -252 63 -83 -3 -107 -8 -164 -35 -93 -44 -160 -109 -206 -202 -36 -74 -37
-77 -37 -191 0 -114 1 -117 38 -192 45 -91 112 -157 207 -202 61 -29 72 -31
180 -31 105 0 120 2 174 28 81 38 141 89 188 161 72 111 69 84 68 825 l-1 663
63 -57 c124 -113 323 -234 414 -251 51 -9 84 16 84 65 0 37 -23 71 -47 71 -24
0 -133 55 -208 105 -99 66 -203 165 -279 268 -50 68 -60 77 -89 77 -18 0 -37
-4 -43 -8z m-183 -1264 c94 -56 142 -135 147 -245 4 -60 0 -80 -20 -125 -36
-77 -79 -121 -149 -153 -118 -53 -257 -22 -340 75 -111 129 -89 322 46 426 56
43 101 55 191 51 65 -3 89 -8 125 -29z"/>
</g>
</svg>
